<?xml version="1.0" encoding="UTF-8"?>
<svg width="24px" height="24px" viewBox="0 0 24 24" version="1.1" xmlns="http://www.w3.org/2000/svg" xmlns:xlink="http://www.w3.org/1999/xlink">
    <title>Apple</title>
    <g id="Page-1" stroke="none" stroke-width="1" fill="none" fill-rule="evenodd">
        <g id="Apple-Button" transform="translate(-96.000000, -64.000000)">
            <g id="button-bg" fill="#FFFFFF" transform="translate(2.000000, 2.000000)">
                <rect id="Rectangle" x="94" y="62" width="348" height="348" rx="174"></rect>
            </g>
            <g id="logo_apple" transform="translate(100.000000, 70.000000)" fill="#000000" fill-rule="nonzero">
                <path d="M16.542,13.9999 C16.525,13.9999 16.508,13.9999 16.49,13.9999 C15.868,13.9939 15.117,13.6229 14.5,12.9999 C13.882,12.3769 13.5,11.4999 13.5,10.4999 C13.5,9.5009 13.887,8.6249 14.5,8.0009 C15.112,7.3759 15.865,7.0069 16.488,6.9999 C16.505,6.9999 16.522,6.9999 16.539,6.9999 C17.16,7.0069 17.911,7.3779 18.528,7.9999 C19.146,8.6219 19.528,9.4989 19.528,10.4989 C19.528,11.4989 19.141,12.3749 18.528,12.9999 C17.915,13.6249 17.163,13.9939 16.542,13.9999 Z" id="Path"></path>
                <path d="M11.5,7.9999 C11.5,6.8959 11.895,5.9039 12.5,5.1999 C13.104,4.4959 13.895,3.9999 14.5,3.9999 C14.5,5.1039 14.104,6.0959 13.5,6.7999 C12.896,7.5039 12.104,7.9999 11.5,7.9999 Z" id="Path"></path>
                <path d="M14.5,15.9999C13.5,15.9999 12.5,15.4999 11.5,14.4999C10.5,13.4999 9.5,12.9999 8.5,12.9999C7.5,12.9999 6.5,13.4999 5.5,14.4999C4.5,15.4999 4,16.4999 4,17.4999C4,18.4999 4.5,19.4999 5.5,20.4999C6.5,21.4999 7.5,21.9999 8.5,21.9999C9.5,21.9999 10.5,21.4999 11.5,20.4999C12.5,19.4999 13.5,19.9999 14.5,19.9999C15.5,19.9999 16.5,19.4999 17.5,18.4999C18.5,17.4999 19,16.4999 19,15.4999C19,14.4999 18.5,13.4999 17.5,12.4999C16.5,11.4999 15.5,10.9999 14.5,10.9999C14.5,11.9999 14.5,12.9999 14.5,13.9999C14.5,14.9999 14.5,15.9999 14.5,15.9999Z" id="Path"></path>
            </g>
        </g>
    </g>
</svg>
